<svg xmlns="http://www.w3.org/2000/svg" viewBox="0 0 1200 900">
  <rect width="1200" height="900" fill="#eee4d4"/>
  <circle cx="350" cy="275" r="105" fill="#d7c39e"/>
  <path d="M205 800c20-250 70-380 150-380 90 0 145 155 162 380" fill="#1f2f34"/>
  <rect x="470" y="345" width="235" height="390" rx="38" fill="#fff" stroke="#1f2f34" stroke-width="14"/>
  <rect x="505" y="405" width="165" height="215" rx="18" fill="#dfe7df"/>
  <circle cx="588" cy="670" r="14" fill="#caa04a"/>
  <path d="M560 454h56M540 500h96M558 546h62" stroke="#1f2f34" stroke-width="18" stroke-linecap="round"/>
  <rect x="780" y="205" width="250" height="120" rx="40" fill="#1f2f34"/>
  <path d="M835 325l-30 58 78-58" fill="#1f2f34"/>
  <circle cx="843" cy="263" r="11" fill="#f7f1e5"/>
  <circle cx="905" cy="263" r="11" fill="#f7f1e5"/>
  <circle cx="967" cy="263" r="11" fill="#f7f1e5"/>
  <path d="M886 470c0-75 58-134 132-134s132 59 132 134v87c0 97-62 168-132 205-70-37-132-108-132-205z" fill="#caa04a" opacity=".95"/>
  <path d="M958 535l43 43 82-92" fill="none" stroke="#fff" stroke-width="24" stroke-linecap="round" stroke-linejoin="round"/>
</svg>
